<mxfile host="app.diagrams.net" modified="2021-05-02T07:13:44.217Z" agent="5.0 (Windows NT 10.0; Win64; x64) AppleWebKit/537.36 (KHTML, like Gecko) Chrome/90.0.4430.93 Safari/537.36" etag="rNNssdUkzu7Puvb6hFOW" version="14.6.9" type="github">
  <diagram id="C5RBs43oDa-KdzZeNtuy" name="Page-1">
    <mxGraphModel dx="782" dy="437" grid="1" gridSize="10" guides="1" tooltips="1" connect="1" arrows="1" fold="1" page="1" pageScale="1" pageWidth="827" pageHeight="1169" math="0" shadow="0">
      <root>
        <mxCell id="WIyWlLk6GJQsqaUBKTNV-0" />
        <mxCell id="WIyWlLk6GJQsqaUBKTNV-1" parent="WIyWlLk6GJQsqaUBKTNV-0" />
        <mxCell id="WIyWlLk6GJQsqaUBKTNV-2" value="" style="rounded=0;html=1;jettySize=auto;orthogonalLoop=1;fontSize=11;endArrow=block;endFill=0;endSize=8;strokeWidth=1;shadow=0;labelBackgroundColor=none;edgeStyle=orthogonalEdgeStyle;" parent="WIyWlLk6GJQsqaUBKTNV-1" source="WIyWlLk6GJQsqaUBKTNV-3" target="WIyWlLk6GJQsqaUBKTNV-6" edge="1">
          <mxGeometry relative="1" as="geometry" />
        </mxCell>
        <mxCell id="WIyWlLk6GJQsqaUBKTNV-3" value="Login as supervisor" style="rounded=1;whiteSpace=wrap;html=1;fontSize=12;glass=0;strokeWidth=1;shadow=0;" parent="WIyWlLk6GJQsqaUBKTNV-1" vertex="1">
          <mxGeometry x="160" y="80" width="120" height="40" as="geometry" />
        </mxCell>
        <mxCell id="mjYuWuDwwWa4jm_J4tlU-3" style="edgeStyle=orthogonalEdgeStyle;rounded=0;orthogonalLoop=1;jettySize=auto;html=1;exitX=1;exitY=0.5;exitDx=0;exitDy=0;entryX=0;entryY=0.5;entryDx=0;entryDy=0;" edge="1" parent="WIyWlLk6GJQsqaUBKTNV-1" source="WIyWlLk6GJQsqaUBKTNV-6" target="WIyWlLk6GJQsqaUBKTNV-7">
          <mxGeometry relative="1" as="geometry" />
        </mxCell>
        <mxCell id="mjYuWuDwwWa4jm_J4tlU-6" style="edgeStyle=orthogonalEdgeStyle;rounded=0;orthogonalLoop=1;jettySize=auto;html=1;exitX=0.5;exitY=1;exitDx=0;exitDy=0;entryX=0.5;entryY=0;entryDx=0;entryDy=0;" edge="1" parent="WIyWlLk6GJQsqaUBKTNV-1" source="WIyWlLk6GJQsqaUBKTNV-6" target="WIyWlLk6GJQsqaUBKTNV-10">
          <mxGeometry relative="1" as="geometry" />
        </mxCell>
        <mxCell id="WIyWlLk6GJQsqaUBKTNV-6" value="Verify strains&lt;br&gt;and marks" style="rhombus;whiteSpace=wrap;html=1;shadow=0;fontFamily=Helvetica;fontSize=12;align=center;strokeWidth=1;spacing=6;spacingTop=-4;" parent="WIyWlLk6GJQsqaUBKTNV-1" vertex="1">
          <mxGeometry x="170" y="170" width="100" height="80" as="geometry" />
        </mxCell>
        <mxCell id="WIyWlLk6GJQsqaUBKTNV-7" value="Reject Garment and send to store" style="rounded=1;whiteSpace=wrap;html=1;fontSize=12;glass=0;strokeWidth=1;shadow=0;" parent="WIyWlLk6GJQsqaUBKTNV-1" vertex="1">
          <mxGeometry x="320" y="190" width="120" height="40" as="geometry" />
        </mxCell>
        <mxCell id="mjYuWuDwwWa4jm_J4tlU-7" value="" style="edgeStyle=orthogonalEdgeStyle;rounded=0;orthogonalLoop=1;jettySize=auto;html=1;" edge="1" parent="WIyWlLk6GJQsqaUBKTNV-1" source="WIyWlLk6GJQsqaUBKTNV-10" target="mjYuWuDwwWa4jm_J4tlU-5">
          <mxGeometry relative="1" as="geometry" />
        </mxCell>
        <mxCell id="mjYuWuDwwWa4jm_J4tlU-19" value="" style="edgeStyle=orthogonalEdgeStyle;rounded=0;orthogonalLoop=1;jettySize=auto;html=1;" edge="1" parent="WIyWlLk6GJQsqaUBKTNV-1" source="WIyWlLk6GJQsqaUBKTNV-10" target="mjYuWuDwwWa4jm_J4tlU-18">
          <mxGeometry relative="1" as="geometry" />
        </mxCell>
        <mxCell id="WIyWlLk6GJQsqaUBKTNV-10" value="New Garment" style="rhombus;whiteSpace=wrap;html=1;shadow=0;fontFamily=Helvetica;fontSize=12;align=center;strokeWidth=1;spacing=6;spacingTop=-4;" parent="WIyWlLk6GJQsqaUBKTNV-1" vertex="1">
          <mxGeometry x="170" y="298" width="100" height="80" as="geometry" />
        </mxCell>
        <mxCell id="mjYuWuDwwWa4jm_J4tlU-2" value="No" style="text;html=1;align=center;verticalAlign=middle;resizable=0;points=[];autosize=1;strokeColor=none;" vertex="1" parent="WIyWlLk6GJQsqaUBKTNV-1">
          <mxGeometry x="235" y="260" width="30" height="20" as="geometry" />
        </mxCell>
        <mxCell id="mjYuWuDwwWa4jm_J4tlU-4" value="Yes" style="text;html=1;align=center;verticalAlign=middle;resizable=0;points=[];autosize=1;strokeColor=none;" vertex="1" parent="WIyWlLk6GJQsqaUBKTNV-1">
          <mxGeometry x="275" y="180" width="30" height="20" as="geometry" />
        </mxCell>
        <mxCell id="mjYuWuDwwWa4jm_J4tlU-22" value="" style="edgeStyle=orthogonalEdgeStyle;rounded=0;orthogonalLoop=1;jettySize=auto;html=1;" edge="1" parent="WIyWlLk6GJQsqaUBKTNV-1" source="mjYuWuDwwWa4jm_J4tlU-5" target="mjYuWuDwwWa4jm_J4tlU-11">
          <mxGeometry relative="1" as="geometry" />
        </mxCell>
        <mxCell id="mjYuWuDwwWa4jm_J4tlU-5" value="&amp;nbsp;Generate Unique barcode for tracking" style="rounded=1;whiteSpace=wrap;html=1;" vertex="1" parent="WIyWlLk6GJQsqaUBKTNV-1">
          <mxGeometry x="320" y="318" width="130" height="40" as="geometry" />
        </mxCell>
        <mxCell id="mjYuWuDwwWa4jm_J4tlU-8" value="Yes" style="text;html=1;align=center;verticalAlign=middle;resizable=0;points=[];autosize=1;strokeColor=none;" vertex="1" parent="WIyWlLk6GJQsqaUBKTNV-1">
          <mxGeometry x="275" y="310" width="30" height="20" as="geometry" />
        </mxCell>
        <mxCell id="mjYuWuDwwWa4jm_J4tlU-27" value="" style="edgeStyle=orthogonalEdgeStyle;rounded=0;orthogonalLoop=1;jettySize=auto;html=1;" edge="1" parent="WIyWlLk6GJQsqaUBKTNV-1" source="mjYuWuDwwWa4jm_J4tlU-9" target="mjYuWuDwwWa4jm_J4tlU-10">
          <mxGeometry relative="1" as="geometry" />
        </mxCell>
        <mxCell id="mjYuWuDwwWa4jm_J4tlU-9" value="Washing operator login" style="rounded=1;whiteSpace=wrap;html=1;" vertex="1" parent="WIyWlLk6GJQsqaUBKTNV-1">
          <mxGeometry x="155" y="480" width="130" height="40" as="geometry" />
        </mxCell>
        <mxCell id="mjYuWuDwwWa4jm_J4tlU-34" value="" style="edgeStyle=orthogonalEdgeStyle;rounded=0;orthogonalLoop=1;jettySize=auto;html=1;" edge="1" parent="WIyWlLk6GJQsqaUBKTNV-1" source="mjYuWuDwwWa4jm_J4tlU-10" target="mjYuWuDwwWa4jm_J4tlU-28">
          <mxGeometry relative="1" as="geometry" />
        </mxCell>
        <mxCell id="mjYuWuDwwWa4jm_J4tlU-10" value="Scan barcode of the garment" style="rounded=1;whiteSpace=wrap;html=1;" vertex="1" parent="WIyWlLk6GJQsqaUBKTNV-1">
          <mxGeometry x="155" y="561" width="130" height="40" as="geometry" />
        </mxCell>
        <mxCell id="mjYuWuDwwWa4jm_J4tlU-23" value="" style="edgeStyle=orthogonalEdgeStyle;rounded=0;orthogonalLoop=1;jettySize=auto;html=1;" edge="1" parent="WIyWlLk6GJQsqaUBKTNV-1" source="mjYuWuDwwWa4jm_J4tlU-11" target="mjYuWuDwwWa4jm_J4tlU-18">
          <mxGeometry relative="1" as="geometry" />
        </mxCell>
        <mxCell id="mjYuWuDwwWa4jm_J4tlU-11" value="Attach unique barcode to the garment" style="rounded=1;whiteSpace=wrap;html=1;" vertex="1" parent="WIyWlLk6GJQsqaUBKTNV-1">
          <mxGeometry x="320" y="410" width="130" height="40" as="geometry" />
        </mxCell>
        <mxCell id="mjYuWuDwwWa4jm_J4tlU-15" value="No" style="text;html=1;align=center;verticalAlign=middle;resizable=0;points=[];autosize=1;strokeColor=none;" vertex="1" parent="WIyWlLk6GJQsqaUBKTNV-1">
          <mxGeometry x="235" y="390" width="30" height="20" as="geometry" />
        </mxCell>
        <mxCell id="mjYuWuDwwWa4jm_J4tlU-24" value="" style="edgeStyle=orthogonalEdgeStyle;rounded=0;orthogonalLoop=1;jettySize=auto;html=1;" edge="1" parent="WIyWlLk6GJQsqaUBKTNV-1" source="mjYuWuDwwWa4jm_J4tlU-18" target="mjYuWuDwwWa4jm_J4tlU-9">
          <mxGeometry relative="1" as="geometry" />
        </mxCell>
        <mxCell id="mjYuWuDwwWa4jm_J4tlU-18" value="Update the physical state of the garment" style="rounded=1;whiteSpace=wrap;html=1;" vertex="1" parent="WIyWlLk6GJQsqaUBKTNV-1">
          <mxGeometry x="155" y="410" width="130" height="40" as="geometry" />
        </mxCell>
        <mxCell id="mjYuWuDwwWa4jm_J4tlU-33" value="" style="edgeStyle=orthogonalEdgeStyle;rounded=0;orthogonalLoop=1;jettySize=auto;html=1;" edge="1" parent="WIyWlLk6GJQsqaUBKTNV-1" source="mjYuWuDwwWa4jm_J4tlU-28" target="mjYuWuDwwWa4jm_J4tlU-31">
          <mxGeometry relative="1" as="geometry" />
        </mxCell>
        <mxCell id="mjYuWuDwwWa4jm_J4tlU-49" value="" style="edgeStyle=orthogonalEdgeStyle;rounded=0;orthogonalLoop=1;jettySize=auto;html=1;" edge="1" parent="WIyWlLk6GJQsqaUBKTNV-1" source="mjYuWuDwwWa4jm_J4tlU-28" target="mjYuWuDwwWa4jm_J4tlU-39">
          <mxGeometry relative="1" as="geometry" />
        </mxCell>
        <mxCell id="mjYuWuDwwWa4jm_J4tlU-28" value="Verify garment properties" style="rhombus;whiteSpace=wrap;html=1;shadow=0;fontFamily=Helvetica;fontSize=12;align=center;strokeWidth=1;spacing=6;spacingTop=-4;" vertex="1" parent="WIyWlLk6GJQsqaUBKTNV-1">
          <mxGeometry x="160" y="632" width="120" height="90" as="geometry" />
        </mxCell>
        <mxCell id="mjYuWuDwwWa4jm_J4tlU-35" style="edgeStyle=orthogonalEdgeStyle;rounded=0;orthogonalLoop=1;jettySize=auto;html=1;exitX=1;exitY=0.5;exitDx=0;exitDy=0;entryX=1;entryY=0.5;entryDx=0;entryDy=0;" edge="1" parent="WIyWlLk6GJQsqaUBKTNV-1" source="mjYuWuDwwWa4jm_J4tlU-31" target="WIyWlLk6GJQsqaUBKTNV-3">
          <mxGeometry relative="1" as="geometry" />
        </mxCell>
        <mxCell id="mjYuWuDwwWa4jm_J4tlU-31" value="Mark garment as invalid and send to inspection&amp;nbsp;" style="rounded=1;whiteSpace=wrap;html=1;" vertex="1" parent="WIyWlLk6GJQsqaUBKTNV-1">
          <mxGeometry x="321" y="647" width="120" height="60" as="geometry" />
        </mxCell>
        <mxCell id="mjYuWuDwwWa4jm_J4tlU-36" value="Update the garment status as all accessories are available" style="rounded=1;whiteSpace=wrap;html=1;" vertex="1" parent="WIyWlLk6GJQsqaUBKTNV-1">
          <mxGeometry x="160" y="750" width="120" height="60" as="geometry" />
        </mxCell>
        <mxCell id="mjYuWuDwwWa4jm_J4tlU-41" value="" style="edgeStyle=orthogonalEdgeStyle;rounded=0;orthogonalLoop=1;jettySize=auto;html=1;" edge="1" parent="WIyWlLk6GJQsqaUBKTNV-1">
          <mxGeometry relative="1" as="geometry">
            <mxPoint x="280" y="884" as="sourcePoint" />
            <mxPoint x="321" y="884" as="targetPoint" />
          </mxGeometry>
        </mxCell>
        <mxCell id="mjYuWuDwwWa4jm_J4tlU-52" value="" style="edgeStyle=orthogonalEdgeStyle;rounded=0;orthogonalLoop=1;jettySize=auto;html=1;" edge="1" parent="WIyWlLk6GJQsqaUBKTNV-1" source="mjYuWuDwwWa4jm_J4tlU-39">
          <mxGeometry relative="1" as="geometry">
            <mxPoint x="220" y="980" as="targetPoint" />
          </mxGeometry>
        </mxCell>
        <mxCell id="mjYuWuDwwWa4jm_J4tlU-39" value="Washing cycles &amp;gt;100" style="rhombus;whiteSpace=wrap;html=1;shadow=0;fontFamily=Helvetica;fontSize=12;align=center;strokeWidth=1;spacing=6;spacingTop=-4;" vertex="1" parent="WIyWlLk6GJQsqaUBKTNV-1">
          <mxGeometry x="160" y="840" width="120" height="90" as="geometry" />
        </mxCell>
        <mxCell id="mjYuWuDwwWa4jm_J4tlU-40" value="Discard the garment and notify to supervisor" style="rounded=1;whiteSpace=wrap;html=1;" vertex="1" parent="WIyWlLk6GJQsqaUBKTNV-1">
          <mxGeometry x="323" y="854" width="120" height="60" as="geometry" />
        </mxCell>
        <mxCell id="mjYuWuDwwWa4jm_J4tlU-43" value="No" style="text;html=1;align=center;verticalAlign=middle;resizable=0;points=[];autosize=1;strokeColor=none;" vertex="1" parent="WIyWlLk6GJQsqaUBKTNV-1">
          <mxGeometry x="220" y="940" width="30" height="20" as="geometry" />
        </mxCell>
        <mxCell id="mjYuWuDwwWa4jm_J4tlU-44" value="Yes" style="text;html=1;align=center;verticalAlign=middle;resizable=0;points=[];autosize=1;strokeColor=none;" vertex="1" parent="WIyWlLk6GJQsqaUBKTNV-1">
          <mxGeometry x="285" y="854" width="30" height="20" as="geometry" />
        </mxCell>
        <mxCell id="mjYuWuDwwWa4jm_J4tlU-55" style="edgeStyle=orthogonalEdgeStyle;rounded=0;orthogonalLoop=1;jettySize=auto;html=1;entryX=0;entryY=0.5;entryDx=0;entryDy=0;" edge="1" parent="WIyWlLk6GJQsqaUBKTNV-1" source="mjYuWuDwwWa4jm_J4tlU-54" target="mjYuWuDwwWa4jm_J4tlU-39">
          <mxGeometry relative="1" as="geometry">
            <Array as="points">
              <mxPoint x="140" y="1025" />
              <mxPoint x="140" y="885" />
            </Array>
          </mxGeometry>
        </mxCell>
        <mxCell id="mjYuWuDwwWa4jm_J4tlU-58" value="" style="edgeStyle=orthogonalEdgeStyle;rounded=0;orthogonalLoop=1;jettySize=auto;html=1;" edge="1" parent="WIyWlLk6GJQsqaUBKTNV-1" source="mjYuWuDwwWa4jm_J4tlU-54" target="mjYuWuDwwWa4jm_J4tlU-57">
          <mxGeometry relative="1" as="geometry" />
        </mxCell>
        <mxCell id="mjYuWuDwwWa4jm_J4tlU-54" value="Washing completed?" style="rhombus;whiteSpace=wrap;html=1;shadow=0;fontFamily=Helvetica;fontSize=12;align=center;strokeWidth=1;spacing=6;spacingTop=-4;" vertex="1" parent="WIyWlLk6GJQsqaUBKTNV-1">
          <mxGeometry x="160" y="980" width="120" height="90" as="geometry" />
        </mxCell>
        <mxCell id="mjYuWuDwwWa4jm_J4tlU-56" value="Yes" style="text;html=1;align=center;verticalAlign=middle;resizable=0;points=[];autosize=1;strokeColor=none;" vertex="1" parent="WIyWlLk6GJQsqaUBKTNV-1">
          <mxGeometry x="220" y="1080" width="30" height="20" as="geometry" />
        </mxCell>
        <mxCell id="mjYuWuDwwWa4jm_J4tlU-61" value="" style="edgeStyle=orthogonalEdgeStyle;rounded=0;orthogonalLoop=1;jettySize=auto;html=1;" edge="1" parent="WIyWlLk6GJQsqaUBKTNV-1" source="mjYuWuDwwWa4jm_J4tlU-57" target="mjYuWuDwwWa4jm_J4tlU-60">
          <mxGeometry relative="1" as="geometry" />
        </mxCell>
        <mxCell id="mjYuWuDwwWa4jm_J4tlU-57" value="Update the garment as washing completed" style="rounded=1;whiteSpace=wrap;html=1;" vertex="1" parent="WIyWlLk6GJQsqaUBKTNV-1">
          <mxGeometry x="160" y="1120" width="120" height="60" as="geometry" />
        </mxCell>
        <mxCell id="mjYuWuDwwWa4jm_J4tlU-59" value="Login as autoclave operator" style="rounded=1;whiteSpace=wrap;html=1;fontSize=12;glass=0;strokeWidth=1;shadow=0;" vertex="1" parent="WIyWlLk6GJQsqaUBKTNV-1">
          <mxGeometry x="160" y="1220" width="120" height="40" as="geometry" />
        </mxCell>
        <mxCell id="mjYuWuDwwWa4jm_J4tlU-63" value="" style="edgeStyle=orthogonalEdgeStyle;rounded=0;orthogonalLoop=1;jettySize=auto;html=1;" edge="1" parent="WIyWlLk6GJQsqaUBKTNV-1" source="mjYuWuDwwWa4jm_J4tlU-60" target="mjYuWuDwwWa4jm_J4tlU-62">
          <mxGeometry relative="1" as="geometry" />
        </mxCell>
        <mxCell id="mjYuWuDwwWa4jm_J4tlU-67" style="edgeStyle=orthogonalEdgeStyle;rounded=0;orthogonalLoop=1;jettySize=auto;html=1;exitX=1;exitY=0.5;exitDx=0;exitDy=0;entryX=0;entryY=0.5;entryDx=0;entryDy=0;" edge="1" parent="WIyWlLk6GJQsqaUBKTNV-1" source="mjYuWuDwwWa4jm_J4tlU-60" target="mjYuWuDwwWa4jm_J4tlU-9">
          <mxGeometry relative="1" as="geometry">
            <Array as="points">
              <mxPoint x="90" y="1340" />
              <mxPoint x="90" y="500" />
            </Array>
          </mxGeometry>
        </mxCell>
        <mxCell id="mjYuWuDwwWa4jm_J4tlU-60" value="Check the &lt;br&gt;washing and drying state is proper" style="rhombus;whiteSpace=wrap;html=1;shadow=0;fontFamily=Helvetica;fontSize=12;align=center;strokeWidth=1;spacing=6;spacingTop=-4;" vertex="1" parent="WIyWlLk6GJQsqaUBKTNV-1">
          <mxGeometry x="160" y="1290" width="120" height="100" as="geometry" />
        </mxCell>
        <mxCell id="mjYuWuDwwWa4jm_J4tlU-71" value="" style="edgeStyle=orthogonalEdgeStyle;rounded=0;orthogonalLoop=1;jettySize=auto;html=1;" edge="1" parent="WIyWlLk6GJQsqaUBKTNV-1" source="mjYuWuDwwWa4jm_J4tlU-62" target="mjYuWuDwwWa4jm_J4tlU-68">
          <mxGeometry relative="1" as="geometry" />
        </mxCell>
        <mxCell id="mjYuWuDwwWa4jm_J4tlU-62" value="Enter autoclave load number" style="whiteSpace=wrap;html=1;shadow=0;strokeWidth=1;spacing=6;spacingTop=-4;" vertex="1" parent="WIyWlLk6GJQsqaUBKTNV-1">
          <mxGeometry x="160" y="1430" width="120" height="50" as="geometry" />
        </mxCell>
        <mxCell id="mjYuWuDwwWa4jm_J4tlU-64" value="No" style="text;html=1;align=center;verticalAlign=middle;resizable=0;points=[];autosize=1;strokeColor=none;" vertex="1" parent="WIyWlLk6GJQsqaUBKTNV-1">
          <mxGeometry x="140" y="980" width="30" height="20" as="geometry" />
        </mxCell>
        <mxCell id="mjYuWuDwwWa4jm_J4tlU-65" value="Yes" style="text;html=1;align=center;verticalAlign=middle;resizable=0;points=[];autosize=1;strokeColor=none;" vertex="1" parent="WIyWlLk6GJQsqaUBKTNV-1">
          <mxGeometry x="235" y="1400" width="30" height="20" as="geometry" />
        </mxCell>
        <mxCell id="mjYuWuDwwWa4jm_J4tlU-66" value="No" style="text;html=1;align=center;verticalAlign=middle;resizable=0;points=[];autosize=1;strokeColor=none;" vertex="1" parent="WIyWlLk6GJQsqaUBKTNV-1">
          <mxGeometry x="110" y="1320" width="30" height="20" as="geometry" />
        </mxCell>
        <mxCell id="mjYuWuDwwWa4jm_J4tlU-73" style="edgeStyle=orthogonalEdgeStyle;rounded=0;orthogonalLoop=1;jettySize=auto;html=1;exitX=1;exitY=0.5;exitDx=0;exitDy=0;" edge="1" parent="WIyWlLk6GJQsqaUBKTNV-1" source="mjYuWuDwwWa4jm_J4tlU-68">
          <mxGeometry relative="1" as="geometry">
            <mxPoint x="230" y="1490" as="targetPoint" />
          </mxGeometry>
        </mxCell>
        <mxCell id="mjYuWuDwwWa4jm_J4tlU-75" value="" style="edgeStyle=orthogonalEdgeStyle;rounded=0;orthogonalLoop=1;jettySize=auto;html=1;" edge="1" parent="WIyWlLk6GJQsqaUBKTNV-1" source="mjYuWuDwwWa4jm_J4tlU-68" target="mjYuWuDwwWa4jm_J4tlU-74">
          <mxGeometry relative="1" as="geometry" />
        </mxCell>
        <mxCell id="mjYuWuDwwWa4jm_J4tlU-68" value="&amp;nbsp;if any break &lt;br&gt;down during autoclave sterilization" style="rhombus;whiteSpace=wrap;html=1;shadow=0;fontFamily=Helvetica;fontSize=12;align=center;strokeWidth=1;spacing=6;spacingTop=-4;" vertex="1" parent="WIyWlLk6GJQsqaUBKTNV-1">
          <mxGeometry x="160" y="1510" width="120" height="110" as="geometry" />
        </mxCell>
        <mxCell id="mjYuWuDwwWa4jm_J4tlU-69" value="Yes" style="text;html=1;align=center;verticalAlign=middle;resizable=0;points=[];autosize=1;strokeColor=none;" vertex="1" parent="WIyWlLk6GJQsqaUBKTNV-1">
          <mxGeometry x="285" y="1530" width="30" height="20" as="geometry" />
        </mxCell>
        <mxCell id="mjYuWuDwwWa4jm_J4tlU-79" value="" style="edgeStyle=orthogonalEdgeStyle;rounded=0;orthogonalLoop=1;jettySize=auto;html=1;" edge="1" parent="WIyWlLk6GJQsqaUBKTNV-1" source="mjYuWuDwwWa4jm_J4tlU-74" target="mjYuWuDwwWa4jm_J4tlU-78">
          <mxGeometry relative="1" as="geometry" />
        </mxCell>
        <mxCell id="mjYuWuDwwWa4jm_J4tlU-74" value="Update the garment status as ready to use" style="whiteSpace=wrap;html=1;shadow=0;strokeWidth=1;spacing=6;spacingTop=-4;" vertex="1" parent="WIyWlLk6GJQsqaUBKTNV-1">
          <mxGeometry x="160" y="1650" width="120" height="50" as="geometry" />
        </mxCell>
        <mxCell id="mjYuWuDwwWa4jm_J4tlU-76" value="No" style="text;html=1;align=center;verticalAlign=middle;resizable=0;points=[];autosize=1;strokeColor=none;" vertex="1" parent="WIyWlLk6GJQsqaUBKTNV-1">
          <mxGeometry x="235" y="1620" width="30" height="20" as="geometry" />
        </mxCell>
        <mxCell id="mjYuWuDwwWa4jm_J4tlU-77" value="Login as aseptic process user&amp;nbsp;" style="whiteSpace=wrap;html=1;shadow=0;strokeWidth=1;spacing=6;spacingTop=-4;" vertex="1" parent="WIyWlLk6GJQsqaUBKTNV-1">
          <mxGeometry x="160" y="1729" width="120" height="50" as="geometry" />
        </mxCell>
        <mxCell id="mjYuWuDwwWa4jm_J4tlU-80" style="edgeStyle=orthogonalEdgeStyle;rounded=0;orthogonalLoop=1;jettySize=auto;html=1;entryX=0;entryY=0.25;entryDx=0;entryDy=0;" edge="1" parent="WIyWlLk6GJQsqaUBKTNV-1" source="mjYuWuDwwWa4jm_J4tlU-78" target="WIyWlLk6GJQsqaUBKTNV-3">
          <mxGeometry relative="1" as="geometry">
            <Array as="points">
              <mxPoint x="40" y="1850" />
              <mxPoint x="40" y="90" />
            </Array>
          </mxGeometry>
        </mxCell>
        <mxCell id="mjYuWuDwwWa4jm_J4tlU-78" value="Enter name and emp id and issue and garment to the employee and mark it as under use" style="whiteSpace=wrap;html=1;shadow=0;strokeWidth=1;spacing=6;spacingTop=-4;" vertex="1" parent="WIyWlLk6GJQsqaUBKTNV-1">
          <mxGeometry x="160" y="1810" width="120" height="80" as="geometry" />
        </mxCell>
      </root>
    </mxGraphModel>
  </diagram>
</mxfile>
